#Comment line ignore any data following # character 
#Hierarchical Translation and Rotation (.htr) file 
[Header]	
#Header keywords are followed by a single value 
FileType HTR		#Single word string
DataType HTRS		#Translation followed by rotation and scale data
FileVersion 1		#integer
NumSegments 64		#integer
NumFrames 3		#integer
DataFrameRate 30		#integer, data frame rate in this file
EulerRotationOrder ZYX
CalibrationUnits mm
RotationUnits Degrees
GlobalAxisofGravity Y
BoneLengthAxis Y
ScaleFactor 1.00
[SegmentNames&Hierarchy]
#CHILD	PARENT
Pinger_Root GLOBAL
Pelvis Pinger_Root
L_Hip Pelvis
R_Hip Pelvis
Rear_Leg01 Pelvis
Spine1 Pelvis
L_Leg01 L_Hip
L_Leg02 L_Leg01
L_Leg03 L_Leg02
L_Foot L_Leg03
L_Toe1_01 L_Foot
L_Toe2_01 L_Foot
L_Toe3_01 L_Foot
planeAlignerLeft L_Foot
L_Toe1_02 L_Toe1_01
L_Toe1_03 L_Toe1_02
L_Toe2_02 L_Toe2_01
L_Toe2_03 L_Toe2_02
L_Toe3_02 L_Toe3_01
L_Toe3_03 L_Toe3_02
planeLockWeightLeft planeAlignerLeft
R_Leg01 R_Hip
R_Leg02 R_Leg01
R_Leg03 R_Leg02
R_Foot R_Leg03
planeAlignerRight R_Foot
R_Toe1_01 R_Foot
R_Toe2_01 R_Foot
R_Toe3_01 R_Foot
planeLockWeightRight planeAlignerRight
R_Toe1_02 R_Toe1_01
R_Toe1_03 R_Toe1_02
R_Toe2_02 R_Toe2_01
R_Toe2_03 R_Toe2_02
R_Toe3_02 R_Toe3_01
R_Toe3_03 R_Toe3_02
Rear_Leg02 Rear_Leg01
Rear_Leg03 Rear_Leg02
Rear_Leg04 Rear_Leg03
Rear_Foot Rear_Leg04
planeAlignerCenter Rear_Foot
Rear_Toe1_01 Rear_Foot
Rear_Toe2_01 Rear_Foot
Rear_Toe3_01 Rear_Foot
planeLockWeightCenter planeAlignerCenter
Rear_Toe1_02 Rear_Toe1_01
Rear_Toe1_03 Rear_Toe1_02
Rear_Toe2_02 Rear_Toe2_01
Rear_Toe2_03 Rear_Toe2_02
Rear_Toe3_02 Rear_Toe3_01
Rear_Toe3_03 Rear_Toe3_02
Back_Bone Spine1
Head Spine1
Motor_Bone Back_Bone
Ping_Mechanism Back_Bone
BN_LookIK Head
bottomMouth Head
L_Mouth01 Head
L_mouthFront Head
mouthGun Head
R_Mouth01 Head
R_mouthFront Head
TopMouth Head
weapon_bone Head
[BasePosition]
#SegmentName Tx, Ty, Tz, Rx, Ry, Rz, BoneLength
Pinger_Root 0.000000 0.000000 0.000000 -90.000000 0.000000 0.000000 10.000000 
Pelvis 0.000000 0.000000 0.000000 0.000000 0.000000 0.000000 10.000000 
L_Hip 0.000000 0.000000 0.000000 0.000000 0.000000 0.000000 10.000000 
R_Hip 0.000000 0.000000 0.000000 0.000000 0.000000 0.000000 10.000000 
Rear_Leg01 0.000000 0.000000 0.000000 0.000000 0.000000 0.000000 10.000000 
Spine1 0.000000 0.000000 0.000000 0.000000 0.000000 0.000000 10.000000 
L_Leg01 0.000000 0.000000 0.000000 0.000000 0.000000 0.000000 10.000000 
L_Leg02 0.000000 0.000000 0.000000 0.000000 0.000000 0.000000 10.000000 
L_Leg03 0.000000 0.000000 0.000000 0.000000 0.000000 0.000000 10.000000 
L_Foot 0.000000 0.000000 0.000000 0.000000 0.000000 0.000000 10.000000 
L_Toe1_01 0.000000 0.000000 0.000000 0.000000 0.000000 0.000000 10.000000 
L_Toe2_01 0.000000 0.000000 0.000000 0.000000 0.000000 0.000000 10.000000 
L_Toe3_01 0.000000 0.000000 0.000000 0.000000 0.000000 0.000000 10.000000 
planeAlignerLeft 0.000000 0.000000 0.000000 0.000000 0.000000 0.000000 10.000000 
L_Toe1_02 0.000000 0.000000 0.000000 0.000000 0.000000 0.000000 10.000000 
L_Toe1_03 0.000000 0.000000 0.000000 0.000000 0.000000 0.000000 10.000000 
L_Toe2_02 0.000000 0.000000 0.000000 0.000000 0.000000 0.000000 10.000000 
L_Toe2_03 0.000000 0.000000 0.000000 0.000000 0.000000 0.000000 10.000000 
L_Toe3_02 0.000000 0.000000 0.000000 0.000000 0.000000 0.000000 10.000000 
L_Toe3_03 0.000000 0.000000 0.000000 0.000000 0.000000 0.000000 10.000000 
planeLockWeightLeft 0.000000 0.000000 0.000000 0.000000 0.000000 0.000000 10.000000 
R_Leg01 0.000000 0.000000 0.000000 0.000000 0.000000 0.000000 10.000000 
R_Leg02 0.000000 0.000000 0.000000 0.000000 0.000000 0.000000 10.000000 
R_Leg03 0.000000 0.000000 0.000000 0.000000 0.000000 0.000000 10.000000 
R_Foot 0.000000 0.000000 0.000000 0.000000 0.000000 0.000000 10.000000 
planeAlignerRight 0.000000 0.000000 0.000000 0.000000 0.000000 0.000000 10.000000 
R_Toe1_01 0.000000 0.000000 0.000000 0.000000 0.000000 0.000000 10.000000 
R_Toe2_01 0.000000 0.000000 0.000000 0.000000 0.000000 0.000000 10.000000 
R_Toe3_01 0.000000 0.000000 0.000000 0.000000 0.000000 0.000000 10.000000 
planeLockWeightRight 0.000000 0.000000 0.000000 0.000000 0.000000 0.000000 10.000000 
R_Toe1_02 0.000000 0.000000 0.000000 0.000000 0.000000 0.000000 10.000000 
R_Toe1_03 0.000000 0.000000 0.000000 0.000000 0.000000 0.000000 10.000000 
R_Toe2_02 0.000000 0.000000 0.000000 0.000000 0.000000 0.000000 10.000000 
R_Toe2_03 0.000000 0.000000 0.000000 0.000000 0.000000 0.000000 10.000000 
R_Toe3_02 0.000000 0.000000 0.000000 0.000000 0.000000 0.000000 10.000000 
R_Toe3_03 0.000000 0.000000 0.000000 0.000000 0.000000 0.000000 10.000000 
Rear_Leg02 0.000000 0.000000 0.000000 0.000000 0.000000 0.000000 10.000000 
Rear_Leg03 0.000000 0.000000 0.000000 0.000000 0.000000 0.000000 10.000000 
Rear_Leg04 0.000000 0.000000 0.000000 0.000000 0.000000 0.000000 10.000000 
Rear_Foot 0.000000 0.000000 0.000000 0.000000 0.000000 0.000000 10.000000 
planeAlignerCenter 0.000000 0.000000 0.000000 0.000000 0.000000 0.000000 10.000000 
Rear_Toe1_01 0.000000 0.000000 0.000000 0.000000 0.000000 0.000000 10.000000 
Rear_Toe2_01 0.000000 0.000000 0.000000 0.000000 0.000000 0.000000 10.000000 
Rear_Toe3_01 0.000000 0.000000 0.000000 0.000000 0.000000 0.000000 10.000000 
planeLockWeightCenter 0.000000 0.000000 0.000000 0.000000 0.000000 0.000000 10.000000 
Rear_Toe1_02 0.000000 0.000000 0.000000 0.000000 0.000000 0.000000 10.000000 
Rear_Toe1_03 0.000000 0.000000 0.000000 0.000000 0.000000 0.000000 10.000000 
Rear_Toe2_02 0.000000 0.000000 0.000000 0.000000 0.000000 0.000000 10.000000 
Rear_Toe2_03 0.000000 0.000000 0.000000 0.000000 0.000000 0.000000 10.000000 
Rear_Toe3_02 0.000000 0.000000 0.000000 0.000000 0.000000 0.000000 10.000000 
Rear_Toe3_03 0.000000 0.000000 0.000000 0.000000 0.000000 0.000000 10.000000 
Back_Bone 0.000000 0.000000 0.000000 0.000000 0.000000 0.000000 10.000000 
Head 0.000000 0.000000 0.000000 0.000000 0.000000 0.000000 10.000000 
Motor_Bone 0.000000 0.000000 0.000000 0.000000 0.000000 0.000000 10.000000 
Ping_Mechanism 0.000000 0.000000 0.000000 0.000000 0.000000 0.000000 10.000000 
BN_LookIK 0.000000 0.000000 0.000000 0.000000 0.000000 0.000000 10.000000 
bottomMouth 0.000000 0.000000 0.000000 0.000000 0.000000 0.000000 10.000000 
L_Mouth01 0.000000 0.000000 0.000000 0.000000 0.000000 0.000000 10.000000 
L_mouthFront 0.000000 0.000000 0.000000 0.000000 0.000000 0.000000 10.000000 
mouthGun 0.000000 0.000000 0.000000 0.000000 0.000000 0.000000 10.000000 
R_Mouth01 0.000000 0.000000 0.000000 0.000000 0.000000 0.000000 10.000000 
R_mouthFront 0.000000 0.000000 0.000000 0.000000 0.000000 0.000000 10.000000 
TopMouth 0.000000 0.000000 0.000000 0.000000 0.000000 0.000000 10.000000 
weapon_bone 0.000000 0.000000 0.000000 0.000000 0.000000 0.000000 10.000000 
#Beginning of Data. Separated by tabs
#Fr	Tx	Ty	Tz	Rx	Ry	Rz	SF
[Pinger_Root]
25 0.000000 0.000000 0.000000 -0.000075 -0.000000 -0.000020 0.000000
26 0.000000 0.000000 0.000000 -0.000075 -0.000000 -0.000020 0.000000
27 0.000000 0.000000 0.000000 -0.000075 -0.000000 -0.000020 0.000000
[Pelvis]
25 -1229.360229 -1319.185181 5457.693848 -170.893372 -77.448402 162.178558 5747.869141
26 -1249.260010 -1380.122437 5610.893555 -171.614288 -76.836716 160.813171 5911.642578
27 -1188.954712 -1234.760620 5708.860352 -167.427811 -80.160530 158.810638 5960.648926
[L_Hip]
25 5.766392 125.831482 872.656799 160.158691 -45.484905 122.312202 881.701050
26 5.766392 125.831482 872.656799 160.158691 -45.484905 122.312202 881.701050
27 5.766392 125.831482 872.656799 160.158691 -45.484905 122.312202 881.701050
[R_Hip]
25 5.765438 125.836372 -872.654907 38.087833 49.812687 125.703735 881.699829
26 5.765438 125.836372 -872.654907 38.087841 49.812687 125.703735 881.699829
27 5.765438 125.836372 -872.654907 38.087841 49.812687 125.703735 881.699829
[Rear_Leg01]
25 -192.298416 -925.602966 -0.001907 -169.491867 -6.765282 -146.474396 945.367432
26 -192.298416 -925.602966 -0.001907 -171.411819 -5.976938 -147.959686 945.367432
27 -192.298416 -925.602966 -0.001907 -168.033218 -5.108093 -146.796234 945.367432
[Spine1]
25 290.604584 5.007505 0.000477 2.677695 -1.113429 10.279868 290.647736
26 290.604584 5.007505 0.000477 5.100111 -1.596130 6.038150 290.647736
27 290.604584 5.007505 0.000477 3.412828 -2.766508 3.676450 290.647736
[L_Leg01]
25 761.932007 -0.002384 -0.069261 53.021980 -3.817981 -53.569454 761.932068
26 761.932007 -0.002384 -0.069261 49.423195 3.556052 -52.146935 761.932068
27 761.932007 -0.002384 -0.069261 44.327400 -0.281361 -44.629982 761.932068
[L_Leg02]
25 1441.140503 -0.000954 -0.000715 -19.516115 11.824900 -16.402468 1441.140503
26 1441.140503 -0.000954 -0.000715 -16.521843 8.128088 -14.693211 1441.140503
27 1441.140503 -0.000954 -0.000715 -7.829903 2.085859 -35.037201 1441.140503
[L_Leg03]
25 1686.963989 -0.000715 -0.000954 0.090400 -0.013890 85.429459 1686.963989
26 1686.963989 -0.000715 -0.000954 0.065000 -0.015311 92.328819 1686.963989
27 1686.963989 -0.000715 -0.000954 0.019162 -0.006189 105.799881 1686.963989
[L_Foot]
25 3041.570068 -30.715107 11.297464 -8.779204 16.296656 19.071211 3041.746094
26 3041.570068 -30.715107 11.297464 -10.044846 15.473639 15.665087 3041.746094
27 3041.570068 -30.715107 11.297464 -9.575918 16.094883 16.098791 3041.746094
[L_Toe1_01]
25 -188.216690 -224.732346 -21.137953 90.504402 -12.890103 -158.524307 293.899567
26 -188.216690 -224.732346 -21.137953 94.135452 -13.688969 -157.829941 293.899567
27 -188.216690 -224.732346 -21.137953 94.508102 -14.347363 -157.795685 293.899567
[L_Toe2_01]
25 200.746536 -219.926590 148.838394 -78.647072 -26.695726 -71.060532 332.896027
26 200.746536 -219.926590 148.838394 -82.077957 -28.557524 -74.747498 332.896027
27 200.746536 -219.926590 148.838394 -76.829506 -25.287533 -85.836884 332.896027
[L_Toe3_01]
25 188.832520 -219.859131 -191.078659 -93.299309 -7.406526 -88.278679 347.140900
26 188.832520 -219.859131 -191.078659 -93.731277 -11.651512 -87.752922 347.140900
27 188.832520 -219.859131 -191.078659 -91.720497 -14.574668 -94.856606 347.140900
[planeAlignerLeft]
25 28.271202 -695.367981 651.935547 169.268845 -79.753853 89.834312 953.601501
26 26.678471 -648.064209 736.571960 169.306671 -76.298279 89.968506 981.446533
27 44.703880 -659.565247 687.019775 169.306686 -76.298271 89.968506 953.425842
[L_Toe1_02]
25 413.761139 0.000477 0.000000 0.001387 -25.607031 0.001387 413.761139
26 413.761139 0.000477 0.000000 0.001396 -24.386183 0.001396 413.761139
27 413.761139 0.000477 0.000000 0.001433 -19.930908 0.001433 413.761139
[L_Toe1_03]
25 464.317322 0.000358 -0.000089 0.004799 61.688042 0.004799 464.317322
26 464.317322 0.000358 -0.000089 0.007201 71.239761 0.007201 464.317322
27 464.317322 0.000358 -0.000089 179.809616 89.293076 179.809616 464.317322
[L_Toe2_02]
25 342.235809 -0.000477 0.000238 -0.003284 0.075751 0.001658 342.235809
26 342.235809 -0.000477 0.000238 -0.003284 0.070897 0.001658 342.235809
27 342.235809 -0.000477 0.000238 -0.002608 -35.977642 -0.002607 342.235809
[L_Toe2_03]
25 420.210846 -0.000715 0.000000 0.006588 0.595221 -0.003251 420.210846
26 420.210846 -0.000715 0.000000 0.006588 0.595145 -0.003251 420.210846
27 420.210846 -0.000715 0.000000 0.006417 31.901146 -0.001583 420.210846
[L_Toe3_02]
25 329.270111 0.000954 0.000000 -0.002466 -50.763046 -0.002466 329.270111
26 329.270111 0.000954 0.000000 -0.002584 -38.017044 -0.002584 329.270111
27 329.270111 0.000954 0.000000 -0.002418 -57.732182 -0.002418 329.270111
[L_Toe3_03]
25 439.137451 -0.001907 0.000954 0.006847 44.917454 -0.000724 439.137451
26 439.137451 -0.001907 0.000954 0.004838 31.443846 -0.007188 439.137451
27 439.137451 -0.001907 0.000954 -0.000003 53.652538 -0.003683 439.137451
[planeLockWeightLeft]
25 0.001907 -0.000000 -0.000229 -0.011826 -0.004376 0.005620 0.001921
26 0.000000 -0.000038 -0.000238 -0.011826 -0.004376 0.005620 0.000241
27 0.000000 -0.000076 -0.000248 -0.011826 -0.004376 0.005620 0.000259
[R_Leg01]
25 761.455627 -0.001907 -0.000358 136.735352 -16.469883 13.074576 761.455688
26 761.455627 -0.001907 -0.000358 144.217499 -28.620926 0.186456 761.455688
27 761.455627 -0.001907 -0.000358 165.996002 -42.297928 -26.737417 761.455688
[R_Leg02]
25 1441.140625 0.000000 -0.000238 0.023112 -0.673254 -137.828201 1441.140625
26 1441.140625 0.000000 -0.000238 0.073747 -4.098982 -173.294647 1441.140625
27 1441.140625 0.000000 -0.000238 -1.333789 -0.581562 -161.064407 1441.140625
[R_Leg03]
25 1686.963989 0.000954 0.001431 0.258313 -0.214956 -179.720291 1686.963989
26 1686.963989 0.000954 0.001431 0.258314 -0.214956 -179.720245 1686.963989
27 1686.963989 0.000954 0.001431 0.104432 -0.063177 139.179459 1686.963989
[R_Foot]
25 3041.560059 -30.531288 -11.204481 -2.262614 -20.204309 34.857147 3041.734131
26 3041.560059 -30.531288 -11.204481 -8.804621 -21.663162 67.796715 3041.734131
27 3041.560059 -30.531288 -11.204481 -9.744863 -21.077225 66.057335 3041.734131
[planeAlignerRight]
25 58.928581 -835.793152 -260.328186 -36.577137 -71.339012 -64.343925 877.378784
26 49.114418 -641.442566 -206.510361 -36.577137 -71.339012 -64.343925 675.653198
27 436.830078 -612.750610 -238.771561 -36.580620 -71.350883 -38.559486 789.490784
[R_Toe1_01]
25 -188.383347 -224.864899 21.052242 68.393066 4.315518 -153.814117 294.101532
26 -188.383347 -224.864899 21.052242 67.094116 -1.240523 -169.793411 294.101532
27 -188.383347 -224.864899 21.052242 71.186661 -12.679434 -163.944519 294.101532
[R_Toe2_01]
25 200.637817 -220.002121 -148.787384 -109.070618 26.052439 -98.394249 332.857574
26 200.637817 -220.002121 -148.787384 -102.832489 38.405514 -84.167931 332.857574
27 200.637817 -220.002121 -148.787384 -137.333328 29.777548 -110.541702 332.857574
[R_Toe3_01]
25 188.606735 -220.092957 191.126343 -86.276871 17.759254 -104.940674 347.192566
26 188.606735 -220.092957 191.126343 -82.222427 15.394398 -91.015198 347.192566
27 188.606735 -220.092957 191.126343 -55.900623 16.695360 -103.234406 347.192566
[planeLockWeightRight]
25 0.000000 0.000000 0.000000 -0.011823 -0.004379 -0.000027 0.000000
26 0.000000 0.000000 0.000000 -0.011823 -0.004379 -0.000027 0.000000
27 0.000000 0.000000 0.000000 -0.011823 -0.004379 -0.000027 0.000000
[R_Toe1_02]
25 413.762085 0.000477 -0.000119 0.001443 -18.877207 0.001443 413.762085
26 413.762085 0.000477 -0.000119 0.001460 -17.039612 0.001460 413.762085
27 413.762085 0.000477 -0.000119 0.001508 -12.222531 0.001508 413.762085
[R_Toe1_03]
25 464.317810 0.000000 0.001088 -179.986618 85.644905 -179.983124 464.317810
26 464.317810 0.000000 0.001088 -179.995300 79.799652 -179.991791 464.317810
27 464.317810 0.000000 0.001088 -179.999008 66.130112 -179.995438 464.317810
[R_Toe2_02]
25 342.234741 -0.000954 0.000238 -0.004089 -79.498917 -0.004089 342.234741
26 342.234741 -0.000954 0.000238 -0.005839 -80.811127 -0.005839 342.234741
27 342.234741 -0.000954 0.000238 -0.002335 -78.499199 -0.002335 342.234741
[R_Toe2_03]
25 420.210846 0.000715 -0.000268 -179.995438 65.994415 -179.999023 420.210846
26 420.210846 0.000715 -0.000268 -179.996719 39.640980 179.999420 420.210846
27 420.210846 0.000715 -0.000268 -179.994400 72.706573 -179.997940 420.210846
[R_Toe3_02]
25 329.270355 -0.000477 -0.000954 0.001178 -80.092140 0.001178 329.270355
26 329.270355 -0.000477 -0.000954 0.001175 -84.606384 0.001175 329.270355
27 329.270355 -0.000477 -0.000954 0.001177 -81.155861 0.001177 329.270355
[R_Toe3_03]
25 439.137939 0.000238 0.001431 -179.995148 80.038414 -179.991638 439.137939
26 439.137939 0.000238 0.001431 -179.997116 48.939754 -179.989639 439.137939
27 439.137939 0.000238 0.001431 -179.997131 75.770683 -179.993607 439.137939
[Rear_Leg02]
25 1162.777710 -0.029802 0.005960 -0.328864 -3.516817 -65.326675 1162.777710
26 1162.777710 -0.029802 0.005960 -0.450196 -2.076255 -58.550007 1162.777710
27 1162.777710 -0.029802 0.005960 -0.731599 -1.997912 -50.721313 1162.777710
[Rear_Leg03]
25 607.192505 -0.013351 -0.073195 0.006581 -0.001751 58.012997 607.192505
26 607.192505 -0.013351 -0.073195 0.006626 -0.001573 54.925415 607.192505
27 607.192505 -0.013351 -0.073195 0.007746 0.000875 51.171371 607.192505
[Rear_Leg04]
25 995.874512 -0.020504 -0.011921 -0.036816 -0.014648 46.608337 995.874573
26 995.874512 -0.020504 -0.011921 -0.036108 -0.016315 41.370010 995.874573
27 995.874512 -0.020504 -0.011921 -0.033698 -0.013469 35.352734 995.874573
[Rear_Foot]
25 3096.176270 -0.067472 -0.041425 -15.440558 76.520157 146.498245 3096.176270
26 3096.176270 -0.067472 -0.041425 -9.458879 76.813293 152.549515 3096.176270
27 3096.176270 -0.067472 -0.041425 -9.908673 77.407425 155.430222 3096.176270
[planeAlignerCenter]
25 65.029762 -124.869385 -608.974976 12.240773 -0.001473 179.998184 625.037415
26 65.030319 -124.869080 -608.971375 12.240769 -0.001473 179.998184 625.033875
27 65.030891 -124.868774 -608.967651 12.240769 -0.001473 179.998184 625.030273
[Rear_Toe1_01]
25 0.653352 83.966492 -371.173737 -1.893608 27.185553 86.408012 380.553192
26 0.653352 83.966492 -371.173737 -1.894092 27.185089 86.407806 380.553192
27 0.653352 83.966492 -371.173737 -1.894575 27.184622 86.407600 380.553192
[Rear_Toe2_01]
25 178.200760 -294.826019 -362.060547 -8.148158 22.076635 -65.758232 499.765686
26 178.200760 -294.826019 -362.060547 -8.148154 22.076632 -65.758224 499.765686
27 178.200760 -294.826019 -362.060547 -8.148153 22.076630 -65.758209 499.765686
[Rear_Toe3_01]
25 -153.359680 -308.780914 -362.060852 4.062057 22.999210 -107.228783 499.952881
26 -153.359680 -308.780914 -362.060852 4.062057 22.999210 -107.228783 499.952881
27 -153.359680 -308.780914 -362.060852 4.062057 22.999210 -107.228783 499.952881
[planeLockWeightCenter]
25 1000.000488 0.000305 -0.000112 -0.011814 -0.004373 -0.000015 1000.000488
26 1000.000488 0.000305 -0.000104 -0.011814 -0.004373 -0.000015 1000.000488
27 1000.000488 0.000305 -0.000096 -0.011814 -0.004373 -0.000015 1000.000488
[Rear_Toe1_02]
25 379.707825 0.194073 0.000477 -0.002647 -32.709686 -0.002647 379.707855
26 379.707825 0.194073 0.000477 -0.002647 -32.697659 -0.002647 379.707855
27 379.707825 0.194073 0.000477 -0.002647 -32.685627 -0.002647 379.707855
[Rear_Toe1_03]
25 500.129700 0.165701 0.000119 -179.939240 88.883904 -179.942734 500.129761
26 500.129700 0.165701 0.000119 -179.939240 88.883904 -179.942734 500.129761
27 500.129700 0.165701 0.000119 -179.939240 88.883904 -179.942734 500.129761
[Rear_Toe2_02]
25 340.494507 0.000238 -0.000954 0.001241 -51.937305 0.001241 340.494507
26 340.494507 0.000238 -0.000954 0.001241 -51.937305 0.001241 340.494507
27 340.494507 0.000238 -0.000954 0.001241 -51.937305 0.001241 340.494507
[Rear_Toe2_03]
25 433.103577 0.000000 0.000238 0.000691 46.484493 0.002103 433.103546
26 433.103577 0.000000 0.000238 -0.000133 46.484493 0.001749 433.103546
27 433.103577 0.000000 0.000238 -0.000958 46.484493 0.001395 433.103546
[Rear_Toe3_02]
25 340.494141 -0.000358 -0.000477 -0.002419 -57.587593 -0.002419 340.494171
26 340.494141 -0.000358 -0.000477 -0.002419 -57.588318 -0.002419 340.494171
27 340.494141 -0.000358 -0.000477 -0.002419 -57.589020 -0.002419 340.494171
[Rear_Toe3_03]
25 433.103577 0.001431 -0.000238 0.000026 53.128326 -0.003660 433.103546
26 433.103577 0.001431 -0.000238 0.000026 53.129120 -0.003660 433.103546
27 433.103577 0.001431 -0.000238 0.000025 53.129906 -0.003660 433.103546
[Back_Bone]
25 1312.175781 -701.934692 0.000954 2.790756 -1.457651 -85.682373 1488.125488
26 1312.175781 -701.934692 0.000954 2.790756 -1.457651 -85.682381 1488.125488
27 1312.175781 -701.934692 0.000954 2.790756 -1.457651 -85.682373 1488.125488
[Head]
25 1406.159424 809.709290 0.001431 -1.623609 2.697531 7.613082 1622.625488
26 1406.159424 809.709290 0.001431 -1.623609 2.697531 7.613082 1622.625488
27 1406.159424 809.709290 0.001431 -1.623609 2.697531 7.613082 1622.625488
[Motor_Bone]
25 1158.364380 -417.834747 0.000477 3.394448 -1.301977 -115.970810 1231.419434
26 1158.364380 -417.834747 0.000477 3.394448 -1.301977 -115.970810 1231.419434
27 1158.364380 -417.834747 0.000477 3.394448 -1.301977 -115.970810 1231.419434
[Ping_Mechanism]
25 1224.501343 -446.599121 -60.659309 0.000103 -0.000053 82.120995 1304.811768
26 1227.433472 -447.489624 -62.991627 0.000103 -0.000053 82.120995 1307.978516
27 1226.881958 -443.515656 -46.603943 0.000103 -0.000053 82.120995 1305.418457
[BN_LookIK]
25 193.241119 1380.371704 -0.002861 0.000000 89.965736 -31.038179 1393.832153
26 193.241119 1380.371704 -0.002861 0.000000 89.965736 -31.038179 1393.832153
27 193.241119 1380.371704 -0.002861 0.000000 89.965736 -31.038179 1393.832153
[bottomMouth]
25 -435.092926 615.759399 -0.000954 -0.000022 0.000016 73.527184 753.966492
26 -435.092926 615.759399 -0.000954 -0.000022 0.000016 73.527184 753.966492
27 -435.092926 615.759399 -0.000954 -0.000022 0.000016 73.527184 753.966492
[L_Mouth01]
25 554.440979 7.658243 838.222046 150.204178 23.759130 109.605339 1005.027161
26 554.440979 7.658243 838.222046 150.204178 23.759130 109.605339 1005.027161
27 554.440979 7.658243 838.222046 150.204178 23.759130 109.605339 1005.027161
[L_mouthFront]
25 551.629089 934.514771 339.150421 0.000081 2.804060 79.119301 1136.941284
26 551.629089 934.514771 339.150421 0.000081 2.804060 79.119301 1136.941284
27 551.629089 934.514771 339.150421 0.000081 2.804060 79.119301 1136.941284
[mouthGun]
25 55.332661 1627.420898 0.000000 0.000023 0.000009 -11.038128 1628.361328
26 55.332661 1627.420898 0.000000 0.000023 0.000009 -11.038128 1628.361328
27 55.332661 1627.420898 0.000000 0.000023 0.000009 -11.038128 1628.361328
[R_Mouth01]
25 554.442383 7.659197 -838.223938 29.795891 -23.759109 109.605331 1005.029541
26 554.442383 7.659197 -838.223938 29.795891 -23.759109 109.605331 1005.029541
27 554.442383 7.659197 -838.223938 29.795891 -23.759109 109.605331 1005.029541
[R_mouthFront]
25 551.629089 934.514282 -339.151367 0.000029 -2.803930 79.119133 1136.941162
26 551.629089 934.514282 -339.151367 0.000029 -2.803930 79.119133 1136.941162
27 551.629089 934.514282 -339.151367 0.000029 -2.803930 79.119133 1136.941162
[TopMouth]
25 461.269867 -56.106091 -0.008583 -0.000059 -0.000268 92.025169 464.669525
26 461.269867 -56.106091 -0.008583 -0.000059 -0.000268 92.025169 464.669525
27 461.269867 -56.106091 -0.008583 -0.000059 -0.000268 92.025169 464.669525
[weapon_bone]
25 -987.239868 1448.372803 0.001431 0.000000 89.965736 -31.038221 1752.833740
26 -987.239868 1448.372803 0.001431 0.000000 89.965736 -31.038221 1752.833740
27 -987.239868 1448.372803 0.001431 0.000000 89.965736 -31.038221 1752.833740
